<svg width="41" height="41" viewBox="0 0 41 41" fill="none" xmlns="http://www.w3.org/2000/svg">
<mask id="mask0_6_30" style="mask-type:alpha" maskUnits="userSpaceOnUse" x="0" y="0" width="41" height="41">
<rect x="0.48114" y="0.127441" width="40" height="40" fill="#D9D9D9"/>
</mask>
<g mask="url(#mask0_6_30)">
<path d="M33.1478 35.1274L22.6478 24.6274C21.8145 25.2941 20.8561 25.8219 19.7728 26.2108C18.6895 26.5997 17.5367 26.7941 16.3145 26.7941C13.2867 26.7941 10.7242 25.7455 8.62697 23.6483C6.52975 21.5511 5.48114 18.9886 5.48114 15.9608C5.48114 12.933 6.52975 10.3705 8.62697 8.27327C10.7242 6.17605 13.2867 5.12744 16.3145 5.12744C19.3423 5.12744 21.9048 6.17605 24.002 8.27327C26.0992 10.3705 27.1478 12.933 27.1478 15.9608C27.1478 17.183 26.9534 18.3358 26.5645 19.4191C26.1756 20.5024 25.6478 21.4608 24.9811 22.2941L35.4811 32.7941L33.1478 35.1274ZM16.3145 23.4608C18.3978 23.4608 20.1686 22.7316 21.627 21.2733C23.0853 19.8149 23.8145 18.0441 23.8145 15.9608C23.8145 13.8774 23.0853 12.1066 21.627 10.6483C20.1686 9.18994 18.3978 8.46077 16.3145 8.46077C14.2311 8.46077 12.4603 9.18994 11.002 10.6483C9.54364 12.1066 8.81447 13.8774 8.81447 15.9608C8.81447 18.0441 9.54364 19.8149 11.002 21.2733C12.4603 22.7316 14.2311 23.4608 16.3145 23.4608Z" fill="#8F8FBA"/>
</g>
</svg>
